<?xml version="1.0" standalone="no"?><!DOCTYPE svg PUBLIC "-//W3C//DTD SVG 1.1//EN" "http://www.w3.org/Graphics/SVG/1.1/DTD/svg11.dtd"><svg t="1741937574802" class="icon" viewBox="0 0 1024 1024" version="1.1" xmlns="http://www.w3.org/2000/svg" p-id="13904" width="16" height="16" xmlns:xlink="http://www.w3.org/1999/xlink"><path d="M512 848.76a548.48 548.48 0 0 1-302.6-90.51A552.14 552.14 0 0 1 9.66 524.36L4.08 512l5.58-12.36a551.15 551.15 0 0 1 1004.68 0l5.58 12.36-5.58 12.36A552.19 552.19 0 0 1 814.6 758.25 548.48 548.48 0 0 1 512 848.76zM70.13 512A492.3 492.3 0 0 0 242.4 708.14a491.09 491.09 0 0 0 539.2 0A492.3 492.3 0 0 0 953.87 512a491.13 491.13 0 0 0-883.74 0z" fill="#515151" p-id="13905"></path><path d="M512 723.2a144.29 144.29 0 0 1-69.37-17.86c-20.5-11.1-38.78-26.83-54.34-46.75-30.82-39.47-47.8-91.53-47.8-146.59s17-107.12 47.8-146.59c15.56-19.92 33.84-35.65 54.34-46.75a143.65 143.65 0 0 1 138.74 0c20.5 11.1 38.78 26.83 54.34 46.75 30.82 39.47 47.8 91.53 47.8 146.59s-17 107.12-47.8 146.59c-15.56 19.92-33.84 35.65-54.34 46.75A144.29 144.29 0 0 1 512 723.2z m0-362.4c-28.36 0-55.5 14.75-76.42 41.54-22.63 29-35.09 67.92-35.09 109.66s12.51 80.69 35.09 109.66c20.92 26.79 48.06 41.54 76.42 41.54s55.5-14.75 76.42-41.54c22.63-29 35.09-67.92 35.09-109.66s-12.46-80.69-35.09-109.66C567.5 375.55 540.36 360.8 512 360.8z" fill="#515151" p-id="13906"></path><path d="M512 848.76a548.48 548.48 0 0 1-302.6-90.51A552.14 552.14 0 0 1 9.66 524.36L4.08 512l5.58-12.36a551.15 551.15 0 0 1 1004.68 0l5.58 12.36-5.58 12.36A552.19 552.19 0 0 1 814.6 758.25 548.48 548.48 0 0 1 512 848.76zM70.13 512A492.3 492.3 0 0 0 242.4 708.14a491.09 491.09 0 0 0 539.2 0A492.3 492.3 0 0 0 953.87 512a491.13 491.13 0 0 0-883.74 0z" fill="#515151" p-id="13907"></path><path d="M512 723.2a144.29 144.29 0 0 1-69.37-17.86c-20.5-11.1-38.78-26.83-54.34-46.75-30.82-39.47-47.8-91.53-47.8-146.59s17-107.12 47.8-146.59c15.56-19.92 33.84-35.65 54.34-46.75a143.65 143.65 0 0 1 138.74 0c20.5 11.1 38.78 26.83 54.34 46.75 30.82 39.47 47.8 91.53 47.8 146.59s-17 107.12-47.8 146.59c-15.56 19.92-33.84 35.65-54.34 46.75A144.29 144.29 0 0 1 512 723.2z m0-362.4c-28.36 0-55.5 14.75-76.42 41.54-22.63 29-35.09 67.92-35.09 109.66s12.51 80.69 35.09 109.66c20.92 26.79 48.06 41.54 76.42 41.54s55.5-14.75 76.42-41.54c22.63-29 35.09-67.92 35.09-109.66s-12.46-80.69-35.09-109.66C567.5 375.55 540.36 360.8 512 360.8z" fill="#515151" p-id="13908"></path></svg>